<svg xmlns="http://www.w3.org/2000/svg" xmlns:xlink="http://www.w3.org/1999/xlink" width="217" zoomAndPan="magnify" viewBox="0 0 162.75 34.499999" height="46" preserveAspectRatio="xMidYMid meet" version="1.0"><defs><g/></defs><g fill="#000000" fill-opacity="1"><g transform="translate(13.0708, 24.27484)"><g><path d="M 13 -22.390625 L 22.03125 0 L 16.5625 0 L 14.90625 -4.484375 L 6.375 -4.484375 L 4.71875 0 L -0.765625 0 L 8.28125 -22.390625 Z M 13.15625 -8.953125 L 10.671875 -15.46875 L 10.609375 -15.46875 L 8.109375 -8.953125 Z M 13.15625 -8.953125 "/></g></g></g><g fill="#000000" fill-opacity="1"><g transform="translate(35.351739, 24.27484)"><g><path d="M 1.625 -22.390625 L 8.578125 -22.390625 C 10.671875 -22.390625 12.34375 -21.941406 13.59375 -21.046875 C 14.84375 -20.148438 15.46875 -18.695312 15.46875 -16.6875 C 15.46875 -14.445312 14.535156 -12.847656 12.671875 -11.890625 C 15.859375 -11.328125 17.453125 -9.445312 17.453125 -6.25 C 17.453125 -4.363281 16.800781 -2.847656 15.5 -1.703125 C 14.195312 -0.566406 12.40625 0 10.125 0 L 1.625 0 Z M 6.734375 -13.625 L 7.140625 -13.625 C 8.273438 -13.625 9.125 -13.820312 9.6875 -14.21875 C 10.25 -14.613281 10.53125 -15.265625 10.53125 -16.171875 C 10.53125 -17.691406 9.398438 -18.453125 7.140625 -18.453125 L 6.734375 -18.453125 Z M 6.734375 -3.9375 L 8.328125 -3.9375 C 10.828125 -3.9375 12.078125 -4.769531 12.078125 -6.4375 C 12.078125 -7.425781 11.765625 -8.140625 11.140625 -8.578125 C 10.515625 -9.015625 9.578125 -9.234375 8.328125 -9.234375 L 6.734375 -9.234375 Z M 6.734375 -3.9375 "/></g></g></g><g fill="#000000" fill-opacity="1"><g transform="translate(54.430345, 24.27484)"><g><path d="M 6.734375 -22.390625 L 6.734375 0 L 1.625 0 L 1.625 -22.390625 Z M 6.734375 -22.390625 "/></g></g></g><g fill="#f9943b" fill-opacity="1"><g transform="translate(63.795472, 24.27484)"><g><path d="M 6.734375 -13.890625 L 6.734375 0 L 1.625 0 L 1.625 -22.390625 L 6.734375 -22.390625 L 15.640625 -8.5 L 15.6875 -8.5 L 15.6875 -22.390625 L 20.796875 -22.390625 L 20.796875 0 L 15.6875 0 L 6.78125 -13.890625 Z M 6.734375 -13.890625 "/></g></g></g><g fill="#f9943b" fill-opacity="1"><g transform="translate(87.216224, 24.27484)"><g><path d="M 13 -22.390625 L 22.03125 0 L 16.5625 0 L 14.90625 -4.484375 L 6.375 -4.484375 L 4.71875 0 L -0.765625 0 L 8.28125 -22.390625 Z M 13.15625 -8.953125 L 10.671875 -15.46875 L 10.609375 -15.46875 L 8.109375 -8.953125 Z M 13.15625 -8.953125 "/></g></g></g><g fill="#f9943b" fill-opacity="1"><g transform="translate(109.497164, 24.27484)"><g><path d="M 9.875 -22.796875 C 11.09375 -22.796875 12.28125 -22.617188 13.4375 -22.265625 C 14.59375 -21.910156 15.453125 -21.5625 16.015625 -21.21875 L 16.828125 -20.6875 L 14.765625 -16.609375 C 14.597656 -16.710938 14.367188 -16.847656 14.078125 -17.015625 C 13.796875 -17.191406 13.253906 -17.425781 12.453125 -17.71875 C 11.660156 -18.007812 10.921875 -18.15625 10.234375 -18.15625 C 9.378906 -18.15625 8.722656 -17.972656 8.265625 -17.609375 C 7.804688 -17.253906 7.578125 -16.769531 7.578125 -16.15625 C 7.578125 -15.84375 7.679688 -15.554688 7.890625 -15.296875 C 8.109375 -15.035156 8.476562 -14.753906 9 -14.453125 C 9.53125 -14.148438 9.992188 -13.910156 10.390625 -13.734375 C 10.785156 -13.554688 11.398438 -13.285156 12.234375 -12.921875 C 13.679688 -12.304688 14.914062 -11.46875 15.9375 -10.40625 C 16.96875 -9.351562 17.484375 -8.15625 17.484375 -6.8125 C 17.484375 -5.53125 17.25 -4.410156 16.78125 -3.453125 C 16.320312 -2.492188 15.6875 -1.738281 14.875 -1.1875 C 14.070312 -0.644531 13.179688 -0.242188 12.203125 0.015625 C 11.234375 0.273438 10.175781 0.40625 9.03125 0.40625 C 8.0625 0.40625 7.101562 0.304688 6.15625 0.109375 C 5.21875 -0.0859375 4.429688 -0.332031 3.796875 -0.625 C 3.160156 -0.925781 2.585938 -1.222656 2.078125 -1.515625 C 1.578125 -1.804688 1.210938 -2.050781 0.984375 -2.25 L 0.625 -2.546875 L 3.171875 -6.84375 C 3.390625 -6.65625 3.6875 -6.421875 4.0625 -6.140625 C 4.445312 -5.867188 5.125 -5.492188 6.09375 -5.015625 C 7.0625 -4.546875 7.914062 -4.3125 8.65625 -4.3125 C 10.8125 -4.3125 11.890625 -5.046875 11.890625 -6.515625 C 11.890625 -6.816406 11.8125 -7.097656 11.65625 -7.359375 C 11.5 -7.628906 11.226562 -7.894531 10.84375 -8.15625 C 10.457031 -8.414062 10.113281 -8.625 9.8125 -8.78125 C 9.507812 -8.9375 9.019531 -9.171875 8.34375 -9.484375 C 7.664062 -9.796875 7.164062 -10.035156 6.84375 -10.203125 C 5.476562 -10.867188 4.425781 -11.703125 3.6875 -12.703125 C 2.945312 -13.710938 2.578125 -14.796875 2.578125 -15.953125 C 2.578125 -17.960938 3.316406 -19.601562 4.796875 -20.875 C 6.285156 -22.15625 7.976562 -22.796875 9.875 -22.796875 Z M 9.875 -22.796875 "/></g></g></g><g fill="#f9943b" fill-opacity="1"><g transform="translate(128.738603, 24.27484)"><g><path d="M 6.734375 -8.984375 L 6.734375 0 L 1.625 0 L 1.625 -22.390625 L 6.734375 -22.390625 L 6.734375 -13.46875 L 13.953125 -13.46875 L 13.953125 -22.390625 L 19.046875 -22.390625 L 19.046875 0 L 13.953125 0 L 13.953125 -8.984375 Z M 6.734375 -8.984375 "/></g></g></g><g fill="#000000" fill-opacity="1"><g transform="translate(55.787584, 31.817245)"><g><path d="M 6.203125 -6.0625 L 6.203125 0 L 5.265625 0 L 1.9375 -4.109375 L 1.9375 0 L 0.8125 0 L 0.8125 -6.0625 L 1.734375 -6.0625 L 5.078125 -1.953125 L 5.078125 -6.0625 Z M 6.203125 -6.0625 "/></g></g></g><g fill="#000000" fill-opacity="1"><g transform="translate(63.74948, 31.817245)"><g><path d="M 5.359375 -0.9375 L 5.359375 0 L 0.8125 0 L 0.8125 -6.0625 L 5.234375 -6.0625 L 5.234375 -5.109375 L 1.9375 -5.109375 L 1.9375 -3.546875 L 4.859375 -3.546875 L 4.859375 -2.609375 L 1.9375 -2.609375 L 1.9375 -0.9375 Z M 5.359375 -0.9375 "/></g></g></g><g fill="#000000" fill-opacity="1"><g transform="translate(70.499854, 31.817245)"><g><path d="M 3.421875 0.09375 C 2.585938 0.09375 1.9375 -0.140625 1.46875 -0.609375 C 1 -1.085938 0.765625 -1.765625 0.765625 -2.640625 L 0.765625 -6.0625 L 1.890625 -6.0625 L 1.890625 -2.6875 C 1.890625 -1.5 2.398438 -0.90625 3.421875 -0.90625 C 4.441406 -0.90625 4.953125 -1.5 4.953125 -2.6875 L 4.953125 -6.0625 L 6.0625 -6.0625 L 6.0625 -2.640625 C 6.0625 -1.765625 5.828125 -1.085938 5.359375 -0.609375 C 4.898438 -0.140625 4.253906 0.09375 3.421875 0.09375 Z M 3.421875 0.09375 "/></g></g></g><g fill="#000000" fill-opacity="1"><g transform="translate(78.280025, 31.817245)"><g><path d="M 3.3125 -6.0625 C 3.832031 -6.0625 4.285156 -5.972656 4.671875 -5.796875 C 5.066406 -5.628906 5.367188 -5.382812 5.578125 -5.0625 C 5.785156 -4.738281 5.890625 -4.351562 5.890625 -3.90625 C 5.890625 -3.46875 5.785156 -3.082031 5.578125 -2.75 C 5.367188 -2.425781 5.066406 -2.175781 4.671875 -2 C 4.285156 -1.832031 3.832031 -1.75 3.3125 -1.75 L 1.9375 -1.75 L 1.9375 0 L 0.8125 0 L 0.8125 -6.0625 Z M 3.25 -2.703125 C 3.738281 -2.703125 4.109375 -2.804688 4.359375 -3.015625 C 4.617188 -3.222656 4.75 -3.519531 4.75 -3.90625 C 4.75 -4.289062 4.617188 -4.585938 4.359375 -4.796875 C 4.109375 -5.003906 3.738281 -5.109375 3.25 -5.109375 L 1.9375 -5.109375 L 1.9375 -2.703125 Z M 3.25 -2.703125 "/></g></g></g><g fill="#000000" fill-opacity="1"><g transform="translate(85.515011, 31.817245)"><g><path d="M 4.75 -1.40625 L 1.71875 -1.40625 L 1.109375 0 L -0.046875 0 L 2.6875 -6.0625 L 3.796875 -6.0625 L 6.53125 0 L 5.34375 0 Z M 4.375 -2.28125 L 3.234375 -4.9375 L 2.09375 -2.28125 Z M 4.375 -2.28125 "/></g></g></g><g fill="#000000" fill-opacity="1"><g transform="translate(92.949032, 31.817245)"><g><path d="M 6.203125 -6.0625 L 6.203125 0 L 5.265625 0 L 1.9375 -4.109375 L 1.9375 0 L 0.8125 0 L 0.8125 -6.0625 L 1.734375 -6.0625 L 5.078125 -1.953125 L 5.078125 -6.0625 Z M 6.203125 -6.0625 "/></g></g></g><g fill="#000000" fill-opacity="1"><g transform="translate(100.910928, 31.817245)"><g><path d="M 5.359375 -0.9375 L 5.359375 0 L 0.8125 0 L 0.8125 -6.0625 L 5.234375 -6.0625 L 5.234375 -5.109375 L 1.9375 -5.109375 L 1.9375 -3.546875 L 4.859375 -3.546875 L 4.859375 -2.609375 L 1.9375 -2.609375 L 1.9375 -0.9375 Z M 5.359375 -0.9375 "/></g></g></g></svg>